<mxfile host="Electron" modified="2023-07-17T10:54:37.424Z" agent="Mozilla/5.0 (Windows NT 6.1; Win64; x64) AppleWebKit/537.36 (KHTML, like Gecko) draw.io/21.1.2 Chrome/106.0.5249.199 Electron/21.4.3 Safari/537.36" etag="PagwjyL_4Mpob7pYFn2k" version="21.1.2" type="device">
  <diagram id="IPethDhe6ZVQqmIALtQ7" name="ページ1">
    <mxGraphModel dx="1418" dy="775" grid="1" gridSize="10" guides="1" tooltips="1" connect="1" arrows="1" fold="1" page="1" pageScale="1" pageWidth="827" pageHeight="1169" math="0" shadow="0">
      <root>
        <mxCell id="0" />
        <mxCell id="1" parent="0" />
        <mxCell id="nUNb-dxJ8in_FAHGZ1HG-45" value="&amp;nbsp; Metal Shader&lt;br style=&quot;font-size: 14px;&quot;&gt;" style="rounded=0;whiteSpace=wrap;html=1;align=left;verticalAlign=top;fontStyle=1;fontSize=14;fillColor=#fff2cc;strokeColor=#d6b656;" vertex="1" parent="1">
          <mxGeometry x="20" y="130" width="800" height="110" as="geometry" />
        </mxCell>
        <mxCell id="nUNb-dxJ8in_FAHGZ1HG-46" value="&lt;div&gt;&lt;font color=&quot;#0066cc&quot;&gt;kernel &lt;/font&gt;void computeShader(texture2d&amp;lt;float, access::read&amp;gt;&amp;nbsp; inTexture&amp;nbsp; [[ &lt;font color=&quot;#0066cc&quot;&gt;texture&lt;/font&gt;(&lt;font color=&quot;#cc0000&quot;&gt;0&lt;/font&gt;) ]],&lt;/div&gt;&lt;div&gt;&amp;nbsp; &amp;nbsp; &amp;nbsp; &amp;nbsp; &amp;nbsp; &amp;nbsp; &amp;nbsp; &amp;nbsp; &amp;nbsp; &amp;nbsp; &amp;nbsp; &amp;nbsp; &amp;nbsp; texture2d&amp;lt;float, access::write&amp;gt; outTexture [[ &lt;font color=&quot;#0066cc&quot;&gt;texture&lt;/font&gt;(&lt;font color=&quot;#cc0000&quot;&gt;1&lt;/font&gt;) ]],&lt;/div&gt;&lt;div style=&quot;font-size: 14px;&quot;&gt;&lt;br&gt;&lt;/div&gt;&lt;div style=&quot;font-size: 14px;&quot;&gt;&lt;br&gt;&lt;/div&gt;" style="text;html=1;align=left;verticalAlign=middle;resizable=0;points=[];autosize=1;strokeColor=none;fillColor=none;fontFamily=Courier New;fontStyle=1;fontSize=14;" vertex="1" parent="1">
          <mxGeometry x="50" y="180" width="750" height="80" as="geometry" />
        </mxCell>
        <mxCell id="nUNb-dxJ8in_FAHGZ1HG-47" value="&lt;div style=&quot;font-size: 14px;&quot;&gt;&lt;div&gt;func draw(in view: MTKView) {&lt;/div&gt;&lt;div style=&quot;font-size: 14px;&quot;&gt;&lt;font style=&quot;font-size: 14px;&quot;&gt;&amp;nbsp; &amp;nbsp; ...&lt;/font&gt;&lt;/div&gt;&lt;div&gt;&amp;nbsp; &amp;nbsp; computeEncoder.&lt;font color=&quot;#0066cc&quot;&gt;setTexture&lt;/font&gt;(texture, index: &lt;font color=&quot;#cc0000&quot;&gt;0&lt;/font&gt;)&lt;/div&gt;&lt;div&gt;&amp;nbsp; &amp;nbsp; computeEncoder.&lt;font color=&quot;#0066cc&quot;&gt;setTexture&lt;/font&gt;(drawable.texture, index: &lt;font color=&quot;#cc0000&quot;&gt;1&lt;/font&gt;)&lt;/div&gt;&lt;div style=&quot;font-size: 14px;&quot;&gt;&amp;nbsp; &amp;nbsp; ...&lt;br&gt;&lt;/div&gt;&lt;/div&gt;&lt;div style=&quot;font-size: 14px;&quot;&gt;}&lt;/div&gt;" style="text;html=1;align=left;verticalAlign=middle;resizable=0;points=[];autosize=1;strokeColor=none;fillColor=none;fontFamily=Courier New;fontStyle=1;fontSize=14;" vertex="1" parent="1">
          <mxGeometry x="40" y="10" width="500" height="110" as="geometry" />
        </mxCell>
        <mxCell id="nUNb-dxJ8in_FAHGZ1HG-48" value="" style="rounded=0;whiteSpace=wrap;html=1;fillColor=none;strokeColor=none;" vertex="1" parent="1">
          <mxGeometry width="40" height="40" as="geometry" />
        </mxCell>
        <mxCell id="nUNb-dxJ8in_FAHGZ1HG-49" value="" style="rounded=0;whiteSpace=wrap;html=1;fillColor=none;strokeColor=none;" vertex="1" parent="1">
          <mxGeometry x="1120" width="40" height="40" as="geometry" />
        </mxCell>
        <mxCell id="nUNb-dxJ8in_FAHGZ1HG-50" value="" style="rounded=0;whiteSpace=wrap;html=1;fillColor=none;strokeColor=none;" vertex="1" parent="1">
          <mxGeometry x="750" y="186" width="20" height="20" as="geometry" />
        </mxCell>
        <mxCell id="nUNb-dxJ8in_FAHGZ1HG-51" value="" style="rounded=0;whiteSpace=wrap;html=1;fillColor=none;strokeColor=none;" vertex="1" parent="1">
          <mxGeometry x="750" y="206" width="20" height="20" as="geometry" />
        </mxCell>
        <mxCell id="nUNb-dxJ8in_FAHGZ1HG-52" style="edgeStyle=orthogonalEdgeStyle;shape=connector;curved=1;rounded=0;orthogonalLoop=1;jettySize=auto;html=1;entryX=1;entryY=0.5;entryDx=0;entryDy=0;labelBackgroundColor=default;strokeColor=#0066CC;fontFamily=Helvetica;fontSize=11;fontColor=default;endArrow=classic;strokeWidth=2;" edge="1" parent="1" source="nUNb-dxJ8in_FAHGZ1HG-53" target="nUNb-dxJ8in_FAHGZ1HG-51">
          <mxGeometry relative="1" as="geometry">
            <Array as="points">
              <mxPoint x="870" y="77" />
              <mxPoint x="870" y="216" />
            </Array>
          </mxGeometry>
        </mxCell>
        <mxCell id="nUNb-dxJ8in_FAHGZ1HG-53" value="" style="rounded=0;whiteSpace=wrap;html=1;fillColor=none;strokeColor=none;" vertex="1" parent="1">
          <mxGeometry x="500" y="67" width="20" height="20" as="geometry" />
        </mxCell>
        <mxCell id="nUNb-dxJ8in_FAHGZ1HG-54" style="edgeStyle=orthogonalEdgeStyle;rounded=0;orthogonalLoop=1;jettySize=auto;html=1;entryX=1;entryY=0.5;entryDx=0;entryDy=0;curved=1;strokeColor=#0066CC;strokeWidth=2;" edge="1" parent="1" source="nUNb-dxJ8in_FAHGZ1HG-55" target="nUNb-dxJ8in_FAHGZ1HG-50">
          <mxGeometry relative="1" as="geometry">
            <Array as="points">
              <mxPoint x="910" y="60" />
              <mxPoint x="910" y="196" />
            </Array>
          </mxGeometry>
        </mxCell>
        <mxCell id="nUNb-dxJ8in_FAHGZ1HG-55" value="" style="rounded=0;whiteSpace=wrap;html=1;fillColor=none;strokeColor=none;" vertex="1" parent="1">
          <mxGeometry x="430" y="40" width="20" height="20" as="geometry" />
        </mxCell>
      </root>
    </mxGraphModel>
  </diagram>
</mxfile>
